<mxfile host="app.diagrams.net" modified="2023-06-30T07:46:01.048Z" agent="Mozilla/5.0 (Macintosh; Intel Mac OS X 10_15_7) AppleWebKit/537.36 (KHTML, like Gecko) Chrome/114.0.0.0 Safari/537.36" version="21.5.1" etag="Zqp5EGokQ2DF097aRL-7" type="github">
  <diagram name="第 1 页" id="XDz6YF2L2uJj3fXWm7Vl">
    <mxGraphModel>
      <root>
        <mxCell id="0" />
        <mxCell id="1" parent="0" />
      </root>
    </mxGraphModel>
  </diagram>
</mxfile>
